<?xml version="1.0" standalone="no"?>
<svg xmlns="http://www.w3.org/2000/svg" viewBox="0 0 116.472 36" width="116.472" height="36"><g fill="#8f83d2" color="#8f83d2" transform="translate(0 3.9999999999999982) scale(0.2800001)"><svg width="100.0" height="100.0" x="0.0" y="0.0" viewBox="0 0 100 100"><g><path style="" d="M74.988,37.5c0,13.807-11.182,25-24.988,25C50,55.604,44.396,50,37.5,50H24.988   C12.5,50,0,42.969,0,25C0,6.641,12.5,0,24.988,0H50c12.5,0,24.988,7.745,24.988,25V37.5z" fill="currentColor"></path></g><path style="" d="M37.5,37.5" fill="currentColor"></path><path style="" d="M37.5,37.5" fill="currentColor"></path><g><g><path style="" d="M81.189,38.165C80.822,55.078,66.992,68.75,50,68.75h-6.25V62.5c0-3.448-2.808-6.25-6.25-6.25    H25.623c-0.391,1.935-0.635,4.004-0.635,6.25V75c0,13.807,11.205,25,25.012,25c0-6.909,5.604-12.5,12.5-12.5h12.488    C87.5,87.5,100,80.469,100,62.5C100,47.211,91.297,40.125,81.189,38.165z" fill="currentColor"></path></g></g></svg></g><path fill="#c8c6ec" fill-rule="nonzero" d="M8.11 18.34L4.25 18.34L0 0.48L4.18 0.34L6.55 12.77L9.05 0.48L12.43 0.34L8.11 18.34ZM18.46 18.65Q16.03 18.65 14.72 16.73Q13.42 14.81 13.42 11.62L13.42 11.62Q13.42 8.45 14.71 6.55Q16.01 4.66 18.46 4.66L18.46 4.66Q20.88 4.66 22.21 6.55Q23.54 8.45 23.54 11.62L23.54 11.62Q23.54 14.78 22.21 16.72Q20.88 18.65 18.46 18.65L18.46 18.65ZM18.46 16.15Q19.54 16.15 19.85 14.83Q20.16 13.51 20.16 11.59L20.16 11.59Q20.16 9.67 19.85 8.35Q19.54 7.03 18.46 7.03L18.46 7.03Q17.38 7.03 17.09 8.28Q16.80 9.53 16.80 11.33L16.80 11.33Q16.80 13.54 17.09 14.84Q17.38 16.15 18.46 16.15L18.46 16.15ZM35.45 18.19L31.75 18.48L29.76 14.35L27.70 18.34L24.48 18.34L28.13 11.54L24.60 4.82L28.30 4.82L29.90 8.14L31.63 4.82L34.82 4.82L31.56 10.90L35.45 18.19ZM41.95 18.67Q38.86 18.67 37.60 15.86Q36.34 13.06 36.34 8.95L36.34 8.95Q36.34 6.74 36.91 4.70Q37.49 2.66 38.77 1.33Q40.06 0 42.02 0L42.02 0Q43.54 0 44.68 0.94Q45.82 1.87 46.43 3.37Q47.04 4.87 47.04 6.50L47.04 6.50L43.63 6.67Q43.63 5.59 43.27 4.21Q42.91 2.83 41.83 2.83L41.83 2.83Q40.70 2.83 40.27 4.63Q39.84 6.43 39.84 8.95L39.84 8.95Q39.84 12.07 40.32 13.96Q40.80 15.84 42.17 15.84L42.17 15.84Q43.13 15.84 43.54 14.70Q43.94 13.56 44.06 11.93L44.06 11.93L47.06 12.22Q47.06 13.94 46.49 15.42Q45.91 16.90 44.76 17.78Q43.61 18.67 41.95 18.67L41.95 18.67ZM49.37 18.48L49.37 0.77L52.73 0.34L52.73 6.55Q54.79 4.66 56.59 4.66L56.59 4.66Q57.86 4.66 58.67 5.58Q59.47 6.50 59.47 8.06L59.47 8.06L59.47 18.19L56.11 18.48L56.11 9.29Q56.11 8.40 55.79 7.97Q55.46 7.54 54.94 7.54L54.94 7.54Q54.50 7.54 54.02 7.75Q53.54 7.97 52.73 8.45L52.73 8.45L52.73 18.19L49.37 18.48ZM64.51 18.65Q63.65 18.65 62.95 18.11Q62.26 17.57 61.87 16.64Q61.49 15.72 61.49 14.57L61.49 14.57Q61.49 11.95 63.28 10.88Q65.06 9.82 67.44 9.67L67.44 9.67Q67.44 8.38 67.27 7.75Q67.10 7.13 66.46 7.13L66.46 7.13Q65.90 7.13 65.62 7.56Q65.33 7.99 65.26 8.66L65.26 8.66L61.97 8.09Q62.21 6.24 63.48 5.45Q64.75 4.66 66.46 4.66L66.46 4.66Q68.64 4.66 69.73 5.81Q70.82 6.96 70.82 8.81L70.82 8.81L70.82 15.79Q70.82 16.92 71.18 18.19L71.18 18.19L67.90 18.48L67.51 16.82Q67.08 17.59 66.24 18.12Q65.40 18.65 64.51 18.65L64.51 18.65ZM66.07 16.25Q66.48 16.25 66.76 16.06Q67.03 15.86 67.44 15.43L67.44 15.43L67.44 11.69Q66.24 11.69 65.52 12.34Q64.80 12.98 64.80 14.35L64.80 14.35Q64.80 15.26 65.12 15.76Q65.45 16.25 66.07 16.25L66.07 16.25ZM78.22 18.60Q76.58 18.60 75.46 17.77Q74.33 16.94 74.33 14.83L74.33 14.83L74.33 7.37L72.46 7.37L72.60 4.82L74.42 4.82L74.76 1.90L77.69 1.49L77.69 4.82L80.47 4.82L80.33 7.37L77.71 7.37L77.71 14.81Q77.71 15.53 78.07 15.84Q78.43 16.15 79.13 16.15L79.13 16.15Q79.51 16.15 80.42 16.01L80.42 16.01L80.42 18.34Q80.33 18.36 79.67 18.48Q79.01 18.60 78.22 18.60L78.22 18.60Z" transform="translate(36, 8.832)"></path></svg>